<svg width="30" height="30" viewBox="0 0 30 30" fill="none" xmlns="http://www.w3.org/2000/svg">
<path d="M12.4171 3.36375V3.35571H5.97898C4.63391 3.35571 3.54457 4.43771 3.5369 5.77543H3.53621V11.8569C3.53621 11.9292 3.55087 11.997 3.57251 12.062C3.76816 13.2117 4.76876 14.0883 5.97898 14.0883H12.4171V14.0813C13.5561 14.01 14.4818 13.1625 14.667 12.062C14.6894 11.997 14.7048 11.9292 14.7048 11.8569V5.77543H14.7041C14.6978 4.48975 13.6888 3.44343 12.4171 3.36375ZM13.4191 11.5271C13.4191 12.2345 12.8433 12.8075 12.1334 12.8075H6.10682C5.39693 12.8075 4.82189 12.2345 4.82189 11.5271V5.9173C4.82189 5.20981 5.39693 4.6365 6.10682 4.6365H12.1334C12.8433 4.6365 13.4191 5.20984 13.4191 5.9173V11.5271H13.4191ZM26.433 5.71607C26.4267 4.46217 25.4422 3.44133 24.2019 3.36339V3.35571H18.5855C17.2733 3.35571 16.2113 4.41151 16.2035 5.71604H16.2028V11.649C16.2028 11.7195 16.2168 11.7859 16.2392 11.8491C16.4292 12.971 17.4061 13.8259 18.5855 13.8259H24.202V13.8192C25.313 13.7494 26.2157 12.9224 26.3981 11.8491C26.4198 11.7859 26.4338 11.7195 26.4338 11.649V5.71607H26.433ZM25.1795 11.3272C25.1795 12.0172 24.6184 12.5765 23.9252 12.5765H18.7113C18.0182 12.5765 17.4564 12.0172 17.4564 11.3272V5.85437C17.4564 5.16436 18.0182 4.60506 18.7113 4.60506H23.9252C24.6184 4.60506 25.1795 5.16439 25.1795 5.85437V11.3272ZM12.1781 15.8169V15.8093H5.91327C4.60456 15.8093 3.54388 16.8623 3.53687 18.164H3.53618V24.0812C3.53618 24.1521 3.55018 24.2186 3.57179 24.2811C3.76118 25.3997 4.73591 26.2532 5.91327 26.2532H12.1781V26.2463C13.2863 26.1774 14.187 25.3519 14.3679 24.2811C14.3903 24.2186 14.4043 24.1521 14.4043 24.0812V18.164H14.4029C14.3966 16.9132 13.4156 15.8945 12.1781 15.8169ZM13.1536 23.7609C13.1536 24.4491 12.5932 25.0067 11.9028 25.0067H6.23888C6.23888 25.0067 6.23822 25.0067 6.2375 25.0067H6.03762C5.34728 25.0067 4.78693 24.4491 4.78693 23.7609V18.3013C4.78693 17.6137 5.34728 17.0554 6.03762 17.0554H11.9029C12.5932 17.0554 13.1536 17.6137 13.1536 18.3013V23.7609H13.1536ZM21.1276 22.064C20.6957 22.064 20.3463 22.4011 20.3463 22.8169V24.3226C20.3463 24.7395 20.6956 25.0762 21.1276 25.0762C21.5593 25.0762 21.9087 24.7395 21.9087 24.3226V22.8169C21.9087 22.4011 21.5593 22.064 21.1276 22.064ZM24.4563 21.3104C24.0245 21.3104 23.6751 21.6472 23.6751 22.0633V24.3226C23.6751 24.739 24.0245 25.0756 24.4563 25.0756C24.8888 25.0756 25.2382 24.739 25.2382 24.3226V22.0633C25.2382 21.6472 24.8888 21.3104 24.4563 21.3104ZM24.4563 16.7921C24.0245 16.7921 23.6751 17.1292 23.6751 17.5457V19.0514C23.6751 19.4671 24.0245 19.8042 24.4563 19.8042C24.8888 19.8042 25.2382 19.4671 25.2382 19.0514V17.5457C25.2382 17.1292 24.8888 16.7921 24.4563 16.7921ZM21.1276 16.7928C20.6957 16.7928 20.3463 17.1299 20.3463 17.546V20.5586C20.3463 20.9743 20.6956 21.3111 21.1276 21.3111C21.5593 21.3111 21.9087 20.9744 21.9087 20.5586V17.546C21.9087 17.1299 21.5593 16.7928 21.1276 16.7928ZM17.7554 20.5586C17.325 20.5586 16.9749 20.8936 16.9749 21.3104V24.3226C16.9749 24.7391 17.325 25.0756 17.7554 25.0756C18.1886 25.0756 18.538 24.739 18.538 24.3226V21.3104C18.538 20.8936 18.1886 20.5586 17.7554 20.5586ZM17.7554 16.7921C17.325 16.7921 16.9749 17.1292 16.9749 17.5457V18.2989C16.9749 18.7149 17.325 19.0514 17.7554 19.0514C18.1886 19.0514 18.538 18.7149 18.538 18.2989V17.5457C18.538 17.1292 18.1886 16.7921 17.7554 16.7921Z" fill="#A625FC"/>
</svg>
