<svg width="30" height="30" viewBox="0 0 30 30" fill="none" xmlns="http://www.w3.org/2000/svg">
<path d="M12.4171 3.36387V3.35583H5.97898C4.63391 3.35583 3.54457 4.43783 3.5369 5.77555H3.53621V11.857C3.53621 11.9293 3.55087 11.9971 3.57251 12.0621C3.76816 13.2119 4.76876 14.0884 5.97898 14.0884H12.4171V14.0814C13.5561 14.0102 14.4818 13.1626 14.667 12.0621C14.6894 11.9971 14.7048 11.9293 14.7048 11.857V5.77555H14.7041C14.6978 4.48988 13.6888 3.44356 12.4171 3.36387ZM13.4191 11.5272C13.4191 12.2346 12.8433 12.8076 12.1334 12.8076H6.10682C5.39693 12.8076 4.82189 12.2346 4.82189 11.5272V5.91742C4.82189 5.20993 5.39693 4.63663 6.10682 4.63663H12.1334C12.8433 4.63663 13.4191 5.20996 13.4191 5.91742V11.5272H13.4191ZM26.433 5.71619C26.4267 4.46229 25.4422 3.44146 24.2019 3.36351V3.35583H18.5855C17.2733 3.35583 16.2113 4.41163 16.2035 5.71616H16.2028V11.6491C16.2028 11.7197 16.2168 11.786 16.2392 11.8493C16.4292 12.9711 17.4061 13.826 18.5855 13.826H24.202V13.8194C25.313 13.7495 26.2157 12.9225 26.3981 11.8493C26.4198 11.786 26.4338 11.7197 26.4338 11.6491V5.71619H26.433ZM25.1795 11.3273C25.1795 12.0173 24.6184 12.5767 23.9252 12.5767H18.7113C18.0182 12.5767 17.4564 12.0173 17.4564 11.3273V5.85449C17.4564 5.16448 18.0182 4.60518 18.7113 4.60518H23.9252C24.6184 4.60518 25.1795 5.16451 25.1795 5.85449V11.3273ZM12.1781 15.817V15.8094H5.91327C4.60456 15.8094 3.54388 16.8624 3.53687 18.1641H3.53618V24.0814C3.53618 24.1523 3.55018 24.2187 3.57179 24.2812C3.76118 25.3998 4.73591 26.2533 5.91327 26.2533H12.1781V26.2464C13.2863 26.1776 14.187 25.352 14.3679 24.2812C14.3903 24.2187 14.4043 24.1523 14.4043 24.0814V18.1641H14.4029C14.3966 16.9134 13.4156 15.8947 12.1781 15.817ZM13.1536 23.761C13.1536 24.4493 12.5932 25.0068 11.9028 25.0068H6.23888C6.23888 25.0068 6.23822 25.0068 6.2375 25.0068H6.03762C5.34728 25.0068 4.78693 24.4493 4.78693 23.761V18.3014C4.78693 17.6138 5.34728 17.0556 6.03762 17.0556H11.9029C12.5932 17.0556 13.1536 17.6138 13.1536 18.3014V23.761H13.1536ZM21.1276 22.0641C20.6957 22.0641 20.3463 22.4013 20.3463 22.817V24.3227C20.3463 24.7396 20.6956 25.0763 21.1276 25.0763C21.5593 25.0763 21.9087 24.7396 21.9087 24.3227V22.817C21.9087 22.4013 21.5593 22.0641 21.1276 22.0641ZM24.4563 21.3105C24.0245 21.3105 23.6751 21.6473 23.6751 22.0634V24.3227C23.6751 24.7392 24.0245 25.0757 24.4563 25.0757C24.8888 25.0757 25.2382 24.7391 25.2382 24.3227V22.0634C25.2382 21.6473 24.8888 21.3105 24.4563 21.3105ZM24.4563 16.7922C24.0245 16.7922 23.6751 17.1293 23.6751 17.5458V19.0515C23.6751 19.4672 24.0245 19.8044 24.4563 19.8044C24.8888 19.8044 25.2382 19.4672 25.2382 19.0515V17.5458C25.2382 17.1293 24.8888 16.7922 24.4563 16.7922ZM21.1276 16.7929C20.6957 16.7929 20.3463 17.13 20.3463 17.5461V20.5587C20.3463 20.9745 20.6956 21.3112 21.1276 21.3112C21.5593 21.3112 21.9087 20.9745 21.9087 20.5587V17.5461C21.9087 17.13 21.5593 16.7929 21.1276 16.7929ZM17.7554 20.5587C17.325 20.5587 16.9749 20.8937 16.9749 21.3105V24.3227C16.9749 24.7392 17.325 25.0757 17.7554 25.0757C18.1886 25.0757 18.538 24.7392 18.538 24.3227V21.3105C18.538 20.8937 18.1886 20.5587 17.7554 20.5587ZM17.7554 16.7922C17.325 16.7922 16.9749 17.1293 16.9749 17.5458V18.299C16.9749 18.7151 17.325 19.0515 17.7554 19.0515C18.1886 19.0515 18.538 18.7151 18.538 18.299V17.5458C18.538 17.1293 18.1886 16.7922 17.7554 16.7922Z" fill="white"/>
</svg>
