<svg width="30" height="30" viewBox="0 0 30 30" fill="none" xmlns="http://www.w3.org/2000/svg">
<path d="M23.9391 15.8016C23.8049 15.8028 23.6723 15.8306 23.549 15.8835C23.4257 15.9364 23.3141 16.0133 23.2208 16.1097C23.1275 16.2061 23.0542 16.3201 23.0053 16.445C22.9564 16.57 22.9328 16.7034 22.9359 16.8375V26.0672H6.99845V16.875C7.00786 16.7372 6.98885 16.5989 6.94258 16.4688C6.89631 16.3386 6.82378 16.2194 6.7295 16.1184C6.63521 16.0175 6.52117 15.937 6.39447 15.8819C6.26777 15.8269 6.13111 15.7985 5.99298 15.7985C5.85484 15.7985 5.71818 15.8269 5.59148 15.8819C5.46478 15.937 5.35075 16.0175 5.25646 16.1184C5.16217 16.2194 5.08964 16.3386 5.04338 16.4688C4.99711 16.5989 4.97809 16.7372 4.98751 16.875V27.075C4.97982 27.3422 5.07709 27.6017 5.25847 27.798C5.43985 27.9942 5.69091 28.1116 5.95782 28.125H23.9391C24.2097 28.1164 24.466 28.0013 24.6521 27.8046C24.8382 27.608 24.9391 27.3457 24.9328 27.075V16.875C24.9391 16.6043 24.8382 16.3421 24.6521 16.1454C24.466 15.9488 24.2097 15.8336 23.9391 15.825V15.8016ZM27.8156 15.4688L15.7219 2.23596C15.5705 2.04664 15.3517 1.92331 15.1114 1.89185C14.871 1.86038 14.6278 1.92323 14.4328 2.06721C14.3686 2.11493 14.3118 2.17178 14.2641 2.23596L2.17032 15.4688C1.98048 15.6844 1.87576 15.9619 1.87576 16.2492C1.87576 16.5366 1.98048 16.814 2.17032 17.0297C2.24878 17.1263 2.34571 17.2064 2.45543 17.2652C2.56516 17.324 2.68549 17.3603 2.80941 17.3721C2.93334 17.3839 3.05836 17.3708 3.1772 17.3338C3.29604 17.2967 3.40631 17.2364 3.50157 17.1563C3.54833 17.1189 3.59078 17.0765 3.62813 17.0297L15 4.54221L26.3953 17.011C26.4738 17.1083 26.571 17.1889 26.6811 17.2481C26.7913 17.3073 26.9121 17.3439 27.0366 17.3557C27.1611 17.3675 27.2867 17.3543 27.406 17.3168C27.5253 17.2793 27.6359 17.2184 27.7313 17.1375C27.7765 17.1001 27.8174 17.0576 27.8531 17.011C28.0328 16.7921 28.1278 16.516 28.1209 16.2329C28.114 15.9498 28.0057 15.6787 27.8156 15.4688Z" fill="white"/>
</svg>
