<svg width="21" height="20" viewBox="0 0 21 20" fill="none" xmlns="http://www.w3.org/2000/svg">
<path d="M18.9879 1.5V9.33125C17.8172 10.765 16.2382 11.8813 14.4178 12.5212C13.9768 11.135 12.6249 10.125 11.025 10.125C9.38569 10.125 8.00494 11.1862 7.602 12.6262C5.64637 12.0087 3.95062 10.8475 2.71294 9.33125V1.5C2.71294 0.675 3.42169 0 4.28794 0H17.4129C18.2792 0 18.9879 0.675 18.9879 1.5Z" fill="white"/>
<path d="M18.9879 10.8311V18.4998C18.9879 19.3248 18.2792 19.9998 17.4129 19.9998H4.28794C3.42169 19.9998 2.71294 19.3248 2.71294 18.4998V10.8311C3.9375 12.3311 5.60962 13.4836 7.539 14.1061C7.83825 15.6811 9.28594 16.8748 11.025 16.8748C12.8113 16.8748 14.2892 15.6161 14.5333 13.9786C16.3065 13.3336 17.8421 12.2336 18.9879 10.8311Z" fill="white"/>
<path d="M13.5188 13.5C13.5188 13.7925 13.4636 14.0725 13.3613 14.3313C13.0069 15.2325 12.0947 15.875 11.025 15.875C9.98944 15.875 9.10087 15.2738 8.72419 14.4163C8.5995 14.135 8.53125 13.825 8.53125 13.5C8.53125 13.29 8.56013 13.0863 8.61394 12.8925C8.89613 11.875 9.86869 11.125 11.025 11.125C12.1537 11.125 13.1066 11.8388 13.4138 12.8188C13.482 13.035 13.5188 13.2638 13.5188 13.5Z" fill="white"/>
</svg>
