<svg width="20" height="20" viewBox="0 0 20 20" fill="none" xmlns="http://www.w3.org/2000/svg">
<path d="M15.59 4.28375C15.6613 4.54875 15.6862 4.84 15.6962 5.18375C15.8175 5.19375 15.9338 5.20625 16.0462 5.22125C16.8025 5.3225 17.47 5.54375 18.0037 6.0775C18.5387 6.61 18.76 7.27625 18.8612 8.03C18.9587 8.7475 18.9587 9.655 18.9587 10.755V12.495C18.9587 13.595 18.9587 14.5025 18.8612 15.22C18.76 15.9737 18.5387 16.64 18.0037 17.1737C17.47 17.7063 16.8025 17.9275 16.0462 18.0288C15.3275 18.125 14.4175 18.125 13.315 18.125H8.31125C6.82625 18.125 5.63 18.125 4.68875 17.9988C3.71125 17.8675 2.88875 17.5862 2.23375 16.9362C1.58125 16.2837 1.3 15.4612 1.1675 14.4862C1.0425 13.5487 1.0425 12.3538 1.0425 10.8725V4.3125C1.0425 2.96625 2.135 1.875 3.485 1.875H11.7412C12.3887 1.875 12.87 1.875 13.2862 1.98625C14.4112 2.28625 15.2887 3.16125 15.59 4.28375ZM12.865 3.555C12.6838 3.5075 12.4388 3.5 11.6275 3.5H3.48625C3.37955 3.5 3.2739 3.52102 3.17532 3.56185C3.07674 3.60268 2.98717 3.66253 2.91173 3.73798C2.83628 3.81342 2.77643 3.90299 2.7356 4.00157C2.69477 4.10015 2.67375 4.2058 2.67375 4.3125C2.67375 4.4192 2.69477 4.52485 2.7356 4.62343C2.77643 4.72201 2.83628 4.81158 2.91173 4.88702C2.98717 4.96247 3.07674 5.02232 3.17532 5.06315C3.2739 5.10398 3.37955 5.125 3.48625 5.125H13.3162L14.065 5.12625C14.0653 4.98448 14.0493 4.84315 14.0175 4.705C13.9433 4.429 13.7977 4.1774 13.5954 3.97553C13.3931 3.77365 13.1412 3.62861 12.865 3.555ZM14.5825 10C14.1404 10 13.7164 10.1756 13.4038 10.4882C13.0912 10.8008 12.9156 11.2248 12.9156 11.6669C12.9156 12.109 13.0912 12.5329 13.4038 12.8455C13.7164 13.1581 14.1404 13.3337 14.5825 13.3337C15.0246 13.3337 15.4486 13.1581 15.7612 12.8455C16.0738 12.5329 16.2494 12.109 16.2494 11.6669C16.2494 11.2248 16.0738 10.8008 15.7612 10.4882C15.4486 10.1756 15.0246 10 14.5825 10Z" fill="white"/>
</svg>
